<svg xmlns="http://www.w3.org/2000/svg" width="512" height="256" viewBox="0 0 512 256"><path d="M498.892 189.265v-73.711H510v73.711zm-27.835-63.303v-10.408h11.109v10.408zm0 63.303v-53.398h11.109v53.398zm-27.65-6.586q-6.172 4.273-11.912 6.033-5.678 1.76-12.22 1.76-10.8 0-16.602-4.274-5.801-4.324-5.801-11.011 0-3.922 2.16-7.14 2.222-3.268 5.74-5.23 3.58-1.96 8.023-2.966 3.27-.704 9.875-1.357 13.454-1.308 19.811-3.118.062-1.86.062-2.363 0-5.53-3.148-7.794-4.258-3.067-12.652-3.067-7.838 0-11.603 2.263-3.703 2.212-5.493 7.894l-10.862-1.207q1.481-5.681 4.876-9.15 3.394-3.52 9.813-5.38 6.418-1.911 14.874-1.911 8.393 0 13.64 1.609 5.246 1.609 7.714 4.072 2.469 2.414 3.456 6.134.556 2.313.556 8.347v12.067q0 12.62.679 15.99.74 3.318 2.839 6.385h-11.603q-1.728-2.815-2.222-6.586zm-.926-20.213q-6.048 2.011-18.145 3.419-6.85.804-9.69 1.81-2.839 1.006-4.382 2.966-1.543 1.911-1.543 4.274 0 3.62 3.333 6.034 3.395 2.413 9.875 2.413 6.419 0 11.418-2.262 5-2.313 7.344-6.285 1.79-3.067 1.79-9.05zm-146.21 26.8v-73.712h18.022l21.416 52.191q2.962 7.29 4.32 10.911 1.543-4.022 4.814-11.816l21.663-51.286h16.109v73.711h-11.542v-61.694l-26.292 61.694h-10.8l-26.169-62.75v62.75zm-106.464 0v-53.399h9.937v7.492q3.086-3.922 8.208-6.285 5.123-2.413 11.665-2.413 7.283 0 11.912 2.463 4.69 2.464 6.604 6.889 7.776-9.352 20.243-9.352 9.752 0 14.998 4.424 5.246 4.375 5.246 13.526v36.654h-11.048v-33.637q0-5.43-1.11-7.794-1.05-2.413-3.889-3.872-2.84-1.458-6.666-1.458-6.912 0-11.48 3.771-4.566 3.721-4.566 11.967v31.023h-11.11v-34.693q0-6.034-2.715-9.05-2.716-3.018-8.888-3.018-4.69 0-8.702 2.012-3.95 2.01-5.74 5.882t-1.79 11.163v27.704zm-42.338 0v-53.399h9.998v8.095q3.827-5.681 7.036-7.491 3.271-1.81 7.16-1.81 5.616 0 11.417 2.916l-3.826 8.397q-4.074-1.961-8.147-1.961-3.642 0-6.542 1.81-2.901 1.76-4.135 4.927-1.852 4.827-1.852 10.56v27.955zm-74.37-26.7q0-14.832 10.121-21.972 8.456-5.933 20.614-5.933 13.516 0 22.095 7.24 8.579 7.19 8.579 19.911 0 10.308-3.827 16.24-3.764 5.884-11.047 9.152-7.221 3.268-15.8 3.268-13.763 0-22.28-7.19-8.456-7.19-8.456-20.716zm11.417 0q0 10.258 5.493 15.386 5.493 5.079 13.825 5.079 8.27 0 13.763-5.13 5.493-5.128 5.493-15.636 0-9.906-5.555-14.984-5.492-5.129-13.701-5.129-8.332 0-13.825 5.079-5.493 5.078-5.493 15.335zM2 189.266v-73.712h61.04v8.698H13.971v22.828h42.463v8.698H13.972v33.487zm396.016-71.758l-.642-4.685q1.892.444 3.304.444 1.924 0 3.08-.555 1.154-.554 1.892-1.552.545-.749 1.764-3.715.16-.416.513-1.22l-12.927-29.497h6.223l7.089 17.05q1.379 3.243 2.47 6.82.994-3.438 2.373-6.71l7.281-17.16h5.774l-12.959 29.94q-2.084 4.852-3.24 6.682-1.539 2.467-3.528 3.604-1.988 1.164-4.747 1.164-1.668 0-3.72-.61zm-30.986-11.338h-5.356V65.528h5.773v14.499q3.657-3.964 9.334-3.964 3.144 0 5.934 1.109 2.823 1.08 4.62 3.077 1.828 1.968 2.854 4.768t1.026 5.988q0 7.569-4.33 11.7-4.33 4.13-10.392 4.13-6.03 0-9.463-4.352zm-.064-14.943q0 5.295 1.668 7.652 2.727 3.853 7.378 3.853 3.785 0 6.543-2.828 2.759-2.855 2.759-8.483 0-5.766-2.663-8.51-2.63-2.745-6.383-2.745-3.785 0-6.543 2.855-2.759 2.828-2.759 8.206zM329.02 106.17v-3.715q-3.24 4.38-9.527 4.38-4.073 0-7.505-1.94-3.4-1.941-5.293-5.407-1.86-3.493-1.86-8.011 0-4.408 1.7-7.985 1.7-3.604 5.1-5.516 3.4-1.913 7.602-1.913 3.079 0 5.485 1.136 2.405 1.11 3.913 2.911V65.528h5.741v40.642zm-18.251-14.693q0 5.655 2.758 8.455 2.759 2.8 6.512 2.8 3.785 0 6.415-2.661 2.662-2.69 2.662-8.179 0-6.043-2.694-8.87-2.695-2.829-6.64-2.829-3.85 0-6.447 2.717-2.566 2.717-2.566 8.567zm-17.097 5.211l5.966.638q-1.41 4.519-5.228 7.014-3.817 2.495-9.75 2.495-7.474 0-11.869-3.964-4.362-3.992-4.362-11.173 0-7.43 4.426-11.532 4.427-4.103 11.483-4.103 6.833 0 11.163 4.02t4.33 11.31q0 .444-.032 1.331h-25.404q.32 4.852 3.175 7.43 2.855 2.578 7.121 2.578 3.176 0 5.421-1.442 2.245-1.441 3.56-4.602zm-18.956-8.067h19.02q-.384-3.715-2.18-5.572-2.76-2.883-7.153-2.883-3.978 0-6.704 2.3-2.695 2.302-2.983 6.155zM248.35 106.17V76.728h5.196v4.463q1.988-3.132 3.656-4.13 1.7-.998 3.721-.998 2.92 0 5.934 1.608l-1.989 4.63q-2.117-1.082-4.234-1.082-1.892 0-3.4.998-1.507.97-2.149 2.717-.962 2.661-.962 5.822v15.414zm-13.184-9.482l5.966.638q-1.41 4.519-5.228 7.014-3.817 2.495-9.75 2.495-7.474 0-11.869-3.964-4.362-3.992-4.362-11.173 0-7.43 4.426-11.532 4.427-4.103 11.483-4.103 6.833 0 11.163 4.02t4.33 11.31q0 .444-.032 1.331h-25.404q.32 4.852 3.175 7.43 2.855 2.578 7.121 2.578 3.176 0 5.421-1.442 2.245-1.441 3.56-4.602zm-18.956-8.067h19.02q-.384-3.715-2.18-5.572-2.76-2.883-7.153-2.883-3.978 0-6.704 2.3-2.695 2.302-2.983 6.155zm-45.548 17.549l-10.424-29.442h5.966l5.42 16.994 2.021 6.32q.129-.47 1.764-6.07l5.421-17.244h5.934l5.1 17.077 1.7 5.628 1.957-5.683 5.838-17.022h5.613l-10.65 29.442h-5.997l-5.421-17.632-1.315-5.018-6.896 22.65zM125.66 91.449q0-8.178 5.26-12.115 4.395-3.271 10.714-3.271 7.024 0 11.483 3.992 4.458 3.964 4.458 10.978 0 5.683-1.988 8.954-1.957 3.244-5.742 5.046-3.753 1.802-8.211 1.802-7.153 0-11.58-3.964-4.394-3.965-4.394-11.422zm5.934 0q0 5.655 2.855 8.483 2.855 2.8 7.185 2.8 4.298 0 7.153-2.828 2.854-2.827 2.854-8.622 0-5.46-2.886-8.26-2.855-2.829-7.121-2.829-4.33 0-7.185 2.8-2.855 2.8-2.855 8.456zm-46.927 14.72V65.529h17.738q4.683 0 7.153.388 3.464.5 5.806 1.913 2.341 1.386 3.753 3.909 1.443 2.523 1.443 5.544 0 5.185-3.817 8.789-3.817 3.576-13.792 3.576H90.89v16.523zm6.223-21.318h12.157q6.03 0 8.564-1.94 2.534-1.941 2.534-5.462 0-2.55-1.508-4.353-1.475-1.83-3.913-2.412-1.571-.36-5.805-.36H90.89z"/></svg>