<svg xmlns="http://www.w3.org/2000/svg" width="512" height="512" viewBox="0 0 512 512"><g fill="#fff"><path d="M68.44 96.731v314.474h281.493s93.628-.148 93.628-115.516c0-116.732-161.719-126.46-161.719-126.46s-123.417-12.16-123.417-86.331S260.565 1.43 260.565 1.43 115.26-18.026 115.26 86.552c0 104.566 156.25 124.627 156.25 124.627s90.3 12.771 90.3 89.98c0 81.923-59.295 82.078-59.295 82.078h-55.326V221.525S101.883 198.427 101.883 96.898z"/><path d="M85.908 423.713q-.56 4.652-1.577 8.531-.99 3.88-2.354 7.251-1.339 3.346-3.024 6.286-1.686 2.947-3.61 5.752v.11h19.045v-27.93zm-15.731 27.923q2.22-2.856 4.15-6.118 1.95-3.269 3.506-7.142 1.544-3.88 2.67-8.486 1.126-4.6 1.686-10.108H98.75v31.86h4.362v15.783h-4.368v-11.851H72.802v11.851h-4.363v-15.782zm49.625-18.594q-1.415 0-2.644.56-1.203.56-2.117 1.525-.907.965-1.473 2.271-.56 1.287-.695 2.76h12.842q0-1.499-.399-2.786-.373-1.312-1.126-2.27-.746-.966-1.847-1.5-1.093-.56-2.54-.56zm2.278 19.579q2.059 0 3.744-.322 1.712-.347 3.397-.965v3.455q-1.364.67-3.371 1.042-2.007.406-4.31.406-2.729 0-5.135-.702-2.38-.694-4.17-2.245-1.794-1.544-2.837-4.04-1.016-2.51-1.016-6.049 0-3.474.965-6.015.965-2.574 2.567-4.279 1.602-1.705 3.693-2.574 2.085-.849 4.356-.849 2.142 0 3.989.72 1.866.696 3.236 2.22 1.364 1.525 2.143 3.932.798 2.406.798 5.777v.567l-.026 1.016h-17.436q0 2.432.72 4.144.747 1.685 2.001 2.753 1.287 1.05 2.999 1.525 1.711.483 3.693.483zm34.75-22.474v25.414h-4.144v-21.856h-6.743q-.617 5.244-1.447 8.962-.83 3.694-1.847 6.177-.984 2.464-2.11 3.938-1.094 1.447-2.252 2.168-1.12.695-2.246.907-1.093.219-2.084.219-.644 0-1.094-.084v-4.31q.347.057.643.057.985.026 1.815-.238.856-.27 1.576-.94.753-.694 1.5-2.11.771-1.415 1.473-3.795.72-2.413 1.415-5.945.695-3.558 1.338-8.558zm26.353 12.74q0-2.356-.592-4.17-.56-1.847-1.608-3.108-1.01-1.286-2.432-1.93-1.416-.663-3.101-.663-1.686 0-3.102.67-1.415.643-2.464 1.93-1.016 1.254-1.608 3.101-.56 1.814-.56 4.17 0 2.328.566 4.175.586 1.82 1.628 3.075 1.049 1.261 2.464 1.93 1.416.644 3.101.644 1.686 0 3.076-.644 1.415-.675 2.438-1.93 1.043-1.254 1.609-3.075.579-1.847.579-4.176zm4.33 0q0 2.997-.855 5.455-.856 2.464-2.432 4.227-1.551 1.738-3.77 2.703-2.22.965-4.98.965-2.832 0-5.083-.965-2.22-.965-3.797-2.703-1.55-1.763-2.38-4.227-.837-2.458-.837-5.456 0-3.024.863-5.482.855-2.464 2.406-4.227 1.576-1.77 3.796-2.728 2.252-.965 5.006-.965 2.811 0 5.057.965 2.252.965 3.796 2.728 1.557 1.763 2.38 4.227.837 2.458.837 5.482zm21.882-.535q.914.084 1.795.483.908.373 1.609 1.068.72.695 1.145 1.737.457 1.049.457 2.438 0 2.33-1.338 4.15-1.313 1.789-3.931 2.67-.991.322-2.33.515-1.312.155-3.075.155h-9.657v-25.415h10.191q1.686 0 2.895.193 1.197.155 2.11.476 2.163.773 3.263 2.355 1.126 1.55 1.126 3.584 0 1.203-.38 2.143-.347.907-.933 1.576-.592.643-1.364 1.094-.772.43-1.583.675zm-5.726 9.715q1.448 0 2.439-.135 1.016-.135 1.711-.405 1.229-.476 1.737-1.332.515-.888.515-2.059 0-1.37-.701-2.277-.695-.908-1.93-1.339-1.01-.347-2.806-.347h-6.524v7.894zm.888-11.4q1.576 0 2.406-.239 1.203-.373 1.763-1.203.592-.836.592-2.033 0-2.117-1.737-2.972-1.074-.56-3.371-.56h-6.1v7.013zm34.692 2.22q0-2.356-.585-4.17-.56-1.847-1.609-3.108-1.016-1.286-2.432-1.93-1.415-.663-3.101-.663t-3.108.67q-1.415.643-2.458 1.93-1.016 1.254-1.608 3.101-.56 1.814-.56 4.17 0 2.328.56 4.175.592 1.82 1.634 3.075 1.043 1.261 2.464 1.93 1.416.644 3.102.644 1.685 0 3.075-.644 1.416-.675 2.432-1.93 1.049-1.254 1.609-3.075.585-1.847.585-4.176zm4.337 0q0 2.997-.856 5.455-.856 2.464-2.432 4.227-1.557 1.738-3.777 2.703-2.22.965-4.973.965-2.831 0-5.083-.965-2.22-.965-3.796-2.703-1.557-1.763-2.38-4.227-.837-2.458-.837-5.456 0-3.024.862-5.482.856-2.464 2.406-4.227 1.577-1.77 3.796-2.728 2.252-.965 5.006-.965 2.805 0 5.057.965 2.245.965 3.796 2.728 1.55 1.763 2.38 4.227.83 2.458.83 5.482zm16.516-9.845q-1.416 0-2.651.56-1.203.56-2.117 1.525-.9.965-1.467 2.271-.566 1.287-.695 2.76h12.836q0-1.499-.399-2.786-.373-1.312-1.126-2.27-.746-.966-1.84-1.5-1.094-.56-2.541-.56zm2.27 19.579q2.06 0 3.745-.322 1.712-.347 3.398-.965v3.455q-1.364.67-3.372 1.042-2.007.406-4.31.406-2.722 0-5.128-.702-2.381-.694-4.183-2.245-1.788-1.544-2.83-4.04-1.017-2.51-1.017-6.049 0-3.474.965-6.015.965-2.574 2.567-4.279 1.609-1.711 3.693-2.574 2.085-.862 4.363-.849 2.136 0 3.989.72 1.865.696 3.23 2.22 1.363 1.525 2.142 3.932.804 2.406.804 5.777v.567q0 .212-.032 1.016H252.96q0 2.432.72 4.144.747 1.685 2.008 2.753 1.287 1.05 2.992 1.525 1.711.483 3.693.483z" aria-label="Деловое"/><path d="M80.825 473.48q1.846 0 3.532.399 1.686.373 2.895 1.068v3.448q-1.692-.643-3.107-.965-1.416-.321-2.895-.321-1.545 0-3.076.514-1.531.515-2.728 1.686-1.203 1.145-1.95 3.075-.72 1.898-.72 4.736 0 2.059.534 3.796.56 1.737 1.628 3.024 1.094 1.261 2.728 1.982 1.634.694 3.777.694 1.544 0 3.127-.321 1.582-.348 3.075-.965v3.455q-.45.263-1.203.534-.72.264-1.609.45-.875.219-1.866.322-.99.135-1.981.135-2.574 0-4.87-.772-2.272-.772-3.99-2.38-1.705-1.61-2.702-4.067-.985-2.464-.985-5.836 0-2.509.509-4.523.534-2 1.447-3.526.901-1.524 2.11-2.599 1.23-1.068 2.594-1.737 1.396-.695 2.863-.99 1.473-.323 2.863-.323zm31.494 13.395q0-2.354-.592-4.169-.566-1.846-1.608-3.107-1.017-1.287-2.432-1.93-1.416-.663-3.101-.663-1.686 0-3.108.669-1.415.643-2.458 1.93-1.016 1.255-1.608 3.101-.56 1.815-.56 4.17 0 2.328.56 4.175.592 1.82 1.634 3.075 1.042 1.255 2.458 1.93 1.415.644 3.107.644 1.693 0 3.076-.643 1.415-.676 2.432-1.93 1.042-1.255 1.608-3.076.586-1.847.586-4.176zm4.33 0q0 2.999-.855 5.456-.856 2.465-2.439 4.228-1.544 1.737-3.77 2.702-2.22.965-4.974.965-2.837 0-5.082-.965-2.22-.965-3.797-2.702-1.557-1.763-2.38-4.228-.837-2.457-.837-5.456 0-3.024.856-5.481.856-2.465 2.413-4.228 1.576-1.769 3.796-2.728 2.252-.965 5.006-.965 2.805 0 5.05.965 2.252.966 3.796 2.728 1.557 1.763 2.387 4.228.83 2.457.83 5.481zm12.52-9.04h-8.64v-3.692h21.425v3.693h-8.64v21.727h-4.138zm36.302 8.77q0-2.22-.483-3.989-.45-1.763-1.39-2.992-.933-1.26-2.297-1.93-1.364-.663-3.159-.663-1.287 0-2.355.348-1.042.347-1.898.881-.855.534-1.473 1.152-.618.611-.99 1.094v13.299q1.312 1.338 2.972 2.11 1.685.772 3.61.772 1.177 0 2.489-.424 1.313-.45 2.406-1.577 1.126-1.151 1.847-3.1.72-1.95.72-4.98zm4.336-.051q0 2.65-.534 4.71-.515 2.033-1.364 3.557-.856 1.525-2.007 2.568-1.152 1.016-2.381 1.66-1.235.61-2.516.881-1.26.296-2.38.296-2.33 0-4.04-.753-1.712-.772-3.076-2.271h-.084V512h-4.143v-37.864h3.127l.881 2.895h.084q.347-.54.881-1.048.56-.509 1.473-1.068.933-.586 2.22-1.017 1.313-.425 2.831-.425 2.143 0 4.124.721 2.008.72 3.533 2.297 1.524 1.583 2.432 4.066.939 2.464.939 5.997zm3.378-12.411h4.246l7.895 19.932h.16l7.998-19.932h4.362L181.98 512h-4.118l5.43-12.952zm37.793 3.558q-.238 3.32-.83 5.938-.585 2.625-1.467 4.793-.888 2.136-2.007 3.957-1.126 1.795-2.464 3.507l-.078.103h12.675V477.7zm9.98-3.558v21.856h3.988v12.655h-3.989v-9.097h-19.07v9.097h-3.99V496h1.34q1.82-1.95 3.287-4.118 1.473-2.168 2.541-4.787 1.075-2.625 1.712-5.81.643-3.178.804-7.141zm27.717 25.414v-11.37h-12.81v11.37h-4.15v-25.414h4.15v10.487h12.81v-10.487h4.15v25.414zm15.782 0h-3.635v-25.414h4.144v13.936q0 3.744-.129 5.513h.103q.753-1.228 1.82-2.785 1.069-1.557 2.33-3.237l10.056-13.427h3.635v25.414h-4.143V485.62q0-2.947.129-5.514h-.103q-.747 1.229-1.847 2.786-1.068 1.544-2.329 3.236zm40.773-10.648h-.078q-1.093.752-2.863 1.286-1.737.534-3.93.534-1.526 0-3.108-.347-1.577-.373-2.806-1.313-1.235-.965-1.981-2.618-.747-1.66-.747-4.26v-8.048h4.144v7.514q0 1.204.212 2.22.212 1.017.753 1.77.56.72 1.525 1.119.965.405 2.432.405 1.846 0 3.532-.514 1.686-.515 2.915-1.467v-11.047h4.15v25.414h-4.15zm22.152-11.878q-1.416 0-2.644.56-1.21.566-2.117 1.525-.907.965-1.474 2.278-.56 1.286-.694 2.753h12.842q0-1.499-.4-2.78-.372-1.312-1.125-2.277-.746-.965-1.847-1.499-1.093-.56-2.541-.56zm2.278 19.585q2.058 0 3.744-.321 1.712-.348 3.397-.965v3.455q-1.364.669-3.371 1.042-2.008.399-4.31.399-2.729 0-5.135-.695-2.38-.695-4.17-2.252-1.801-1.544-2.837-4.034-1.016-2.51-1.016-6.048 0-3.474.965-6.016.965-2.573 2.567-4.285 1.608-1.711 3.687-2.567 2.078-.856 4.362-.856 2.142 0 3.989.721 1.866.701 3.236 2.226 1.364 1.525 2.143 3.925.797 2.413.797 5.784v.56l-.025 1.016H320.24q0 2.439.72 4.15.754 1.686 2.008 2.754 1.287 1.042 2.998 1.525 1.712.482 3.694.482zm25.974-23.136q1.846 0 3.538.399 1.68.373 2.883 1.068v3.448q-1.686-.643-3.101-.965-1.416-.321-2.896-.321-1.544 0-3.069.514-1.525.515-2.734 1.686-1.203 1.145-1.95 3.075-.72 1.898-.72 4.736 0 2.059.534 3.796.56 1.737 1.627 3.024 1.094 1.261 2.735 1.982 1.628.694 3.77.694 1.55 0 3.127-.321 1.583-.348 3.082-.965v3.455q-.457.263-1.21.534-.72.264-1.602.45-.881.219-1.872.322-.99.135-1.982.135-2.567 0-4.87-.772-2.271-.772-3.99-2.38-1.704-1.61-2.701-4.067-.985-2.464-.985-5.836 0-2.509.515-4.523.527-2 1.441-3.526.907-1.524 2.11-2.599 1.23-1.068 2.593-1.737 1.396-.695 2.863-.99 1.474-.323 2.864-.323zm19.128 4.356h-8.641v-3.693h21.425v3.693h-8.634v21.727h-4.15zm33.437 8.512q.914.077 1.795.476.908.373 1.609 1.068.72.695 1.145 1.737.45 1.049.45 2.439 0 2.329-1.331 4.143-1.313 1.802-3.932 2.677-.99.321-2.329.514-1.312.155-3.075.155h-9.657v-25.414h10.191q1.686 0 2.889.193 1.203.154 2.11.476 2.168.772 3.269 2.354 1.12 1.551 1.12 3.584 0 1.203-.374 2.143-.347.907-.933 1.576-.592.643-1.364 1.094-.778.43-1.583.669zm-5.726 9.709q1.448 0 2.439-.135 1.016-.136 1.711-.406 1.229-.476 1.737-1.332.515-.887.515-2.058 0-1.37-.701-2.278-.702-.907-1.93-1.338-1.01-.348-2.806-.348h-6.53v7.895zm.888-11.401q1.576 0 2.406-.238 1.203-.374 1.763-1.204.592-.836.592-2.033 0-2.116-1.737-2.972-1.075-.56-3.372-.56h-6.099v7.013zm34.698 2.22q0-2.355-.585-4.17-.566-1.846-1.609-3.107-1.016-1.287-2.432-1.93-1.415-.663-3.1-.663-1.686 0-3.108.669-1.416.643-2.458 1.93-1.017 1.255-1.609 3.101-.56 1.815-.56 4.17 0 2.328.56 4.175.592 1.82 1.635 3.075 1.042 1.255 2.457 1.93 1.416.644 3.108.644 1.692 0 3.075-.643 1.416-.676 2.432-1.93 1.043-1.255 1.609-3.076.585-1.847.585-4.176zm4.337 0q0 2.998-.856 5.455-.855 2.465-2.438 4.228-1.544 1.737-3.77 2.702-2.22.965-4.974.965-2.837 0-5.083-.965-2.22-.965-3.796-2.702-1.557-1.763-2.38-4.228-.837-2.457-.837-5.456 0-3.024.856-5.481.855-2.465 2.413-4.228 1.576-1.769 3.796-2.728 2.251-.965 5.005-.965 2.805 0 5.05.965 2.253.966 3.797 2.728 1.557 1.763 2.387 4.228.83 2.457.83 5.481z" aria-label="сотрудничество"/></g></svg>