<?xml version="1.0" encoding="UTF-8"?>
<svg width="58.303" height="79.577" version="1.1" viewBox="0 0 58.302826 79.576553" xmlns="http://www.w3.org/2000/svg">
<g transform="translate(-.28275 .019163)" fill="#fff">
<path d="m0.28275 15.015v48.877h43.751s14.552-0.0236 14.552-17.954c0-18.143-25.135-19.655-25.135-19.655s-19.182-1.8899-19.182-13.418c0-11.528 15.875-12.662 15.875-12.662s-22.584-3.0238-22.584 13.229c0 16.253 24.285 19.371 24.285 19.371s14.035 1.9844 14.035 13.985c0 12.733-9.2157 12.757-9.2157 12.757h-8.599v-25.135s-22.584-3.5908-22.584-19.371z"/>
<g transform="matrix(.21289 0 0 .21289 1.2524 -26.284)" style="font-feature-settings:normal;font-variant-caps:normal;font-variant-ligatures:normal;font-variant-numeric:normal" aria-label="Деловое ">
<path d="m8.1992 432.71q-0.41016 3.3984-1.1523 6.2305-0.72266 2.832-1.7188 5.293-0.97656 2.4414-2.207 4.5898-1.2305 2.1484-2.6367 4.1992v0.0781h13.906v-20.391zm-11.484 20.391q1.6211-2.0898 3.0273-4.4726 1.4258-2.3828 2.5586-5.2148 1.1328-2.832 1.9531-6.1914 0.82031-3.3594 1.2305-7.3828h12.09v23.262h3.1836v11.523h-3.1836v-8.6523h-18.945v8.6523h-3.1836v-11.523z"/>
<path d="m32.945 439.52q-1.0352 0-1.9336 0.41016-0.87891 0.41016-1.543 1.1133-0.66406 0.70313-1.0742 1.6602-0.41016 0.9375-0.50781 2.0117h9.375q0-1.0938-0.29297-2.0312-0.27344-0.95703-0.82031-1.6602-0.54688-0.70312-1.3477-1.0938-0.80078-0.41016-1.8555-0.41016zm1.6602 14.297q1.5039 0 2.7344-0.23438 1.25-0.2539 2.4805-0.70312v2.5195q-0.99609 0.48828-2.4609 0.76172-1.4648 0.29297-3.1445 0.29297-1.9922 0-3.75-0.50781-1.7383-0.50782-3.0469-1.6406-1.3086-1.1328-2.0703-2.9492-0.74219-1.8359-0.74219-4.4141 0-2.5391 0.70312-4.3945 0.70312-1.875 1.875-3.125t2.6953-1.875q1.5234-0.625 3.1836-0.625 1.5625 0 2.9102 0.52734 1.3672 0.50781 2.3633 1.6211 0.99609 1.1133 1.5625 2.8711 0.58594 1.7578 0.58594 4.2188 0 0.23437 0 0.41016 0 0.15625-0.01953 0.74218h-12.734q0 1.7774 0.52734 3.0274 0.54688 1.2305 1.4648 2.0117 0.9375 0.76171 2.1875 1.1133 1.25 0.35156 2.6953 0.35156z"/>
<path d="m59.977 437.41v18.555h-3.0273v-15.957h-4.9219q-0.44922 3.8281-1.0547 6.543-0.60547 2.6953-1.3477 4.5117-0.72266 1.7969-1.543 2.8711-0.80078 1.0547-1.6406 1.582-0.82031 0.50781-1.6406 0.66406-0.80078 0.15625-1.5234 0.15625-0.46875 0-0.80078-0.0586v-3.1445q0.25391 0.0391 0.46875 0.0391 0.72266 0.0195 1.3281-0.17578 0.625-0.19532 1.1523-0.6836 0.54688-0.50781 1.0938-1.543 0.56641-1.0352 1.0742-2.7734 0.52734-1.7578 1.0352-4.3359 0.50781-2.5977 0.97656-6.25z"/>
<path d="m79.215 446.71q0-1.7188-0.42969-3.0469-0.41016-1.3477-1.1719-2.2656-0.74219-0.9375-1.7773-1.4062-1.0352-0.48828-2.2656-0.48828-1.2305 0-2.2656 0.48828-1.0352 0.46875-1.7969 1.4062-0.74219 0.91797-1.1719 2.2656-0.41016 1.3281-0.41016 3.0469 0 1.6992 0.41016 3.0469 0.42969 1.3281 1.1914 2.2461 0.76172 0.91797 1.7969 1.4062 1.0352 0.46875 2.2656 0.46875 1.2305 0 2.2461-0.46875 1.0352-0.48828 1.7773-1.4062 0.76172-0.91797 1.1719-2.2461 0.42969-1.3477 0.42969-3.0469zm3.1641 0q0 2.1875-0.625 3.9844-0.625 1.7969-1.7773 3.0859-1.1328 1.2695-2.7539 1.9726-1.6211 0.70313-3.6328 0.70313-2.0703 0-3.7109-0.70313-1.6211-0.70312-2.7734-1.9726-1.1328-1.2891-1.7383-3.0859-0.60547-1.7969-0.60547-3.9844 0-2.207 0.625-4.0039 0.625-1.7969 1.7578-3.0859 1.1523-1.2891 2.7734-1.9922 1.6406-0.70312 3.6523-0.70312 2.0508 0 3.6914 0.70312 1.6406 0.70313 2.7734 1.9922 1.1328 1.2891 1.7383 3.0859 0.60547 1.7969 0.60547 4.0039z"/>
<path d="m98.355 446.32q0.66406 0.0586 1.3086 0.35156 0.66407 0.27344 1.1719 0.78125 0.52734 0.50781 0.83984 1.2695 0.33203 0.76172 0.33203 1.7774 0 1.6992-0.97656 3.0273-0.95703 1.3086-2.8711 1.9531-0.72266 0.23437-1.6992 0.37109-0.95703 0.11719-2.2461 0.11719h-7.0508v-18.555h7.4414q1.2305 0 2.1094 0.13672 0.87891 0.11719 1.543 0.35156 1.582 0.56641 2.3828 1.7188 0.82031 1.1328 0.82031 2.6172 0 0.8789-0.27344 1.5625-0.25391 0.66406-0.68359 1.1523-0.42969 0.46875-0.9961 0.80078-0.56641 0.3125-1.1523 0.48828zm-4.1797 7.0898q1.0547 0 1.7773-0.0977 0.74219-0.0977 1.25-0.29297 0.89844-0.35156 1.2695-0.97656 0.37109-0.64454 0.37109-1.5039 0-0.99609-0.50781-1.6602-0.50781-0.66406-1.4062-0.97656-0.74219-0.25391-2.0508-0.25391h-4.7656v5.7617zm0.64453-8.3203q1.1523 0 1.7578-0.17578 0.87891-0.27344 1.2891-0.87891 0.42969-0.60547 0.42969-1.4844 0-1.543-1.2695-2.168-0.78125-0.41016-2.4609-0.41016h-4.4531v5.1172z"/>
<path d="m120.15 446.71q0-1.7188-0.42968-3.0469-0.41016-1.3477-1.1719-2.2656-0.74219-0.9375-1.7773-1.4062-1.0352-0.48828-2.2656-0.48828t-2.2656 0.48828q-1.0352 0.46875-1.7969 1.4062-0.74218 0.91797-1.1719 2.2656-0.41016 1.3281-0.41016 3.0469 0 1.6992 0.41016 3.0469 0.42969 1.3281 1.1914 2.2461 0.76172 0.91797 1.7969 1.4062 1.0352 0.46875 2.2656 0.46875 1.2305 0 2.2461-0.46875 1.0352-0.48828 1.7773-1.4062 0.76172-0.91797 1.1719-2.2461 0.42968-1.3477 0.42968-3.0469zm3.1641 0q0 2.1875-0.625 3.9844-0.625 1.7969-1.7774 3.0859-1.1328 1.2695-2.7539 1.9726-1.6211 0.70313-3.6328 0.70313-2.0703 0-3.7109-0.70313-1.6211-0.70312-2.7734-1.9726-1.1328-1.2891-1.7383-3.0859-0.60547-1.7969-0.60547-3.9844 0-2.207 0.625-4.0039 0.625-1.7969 1.7578-3.0859 1.1524-1.2891 2.7734-1.9922 1.6406-0.70312 3.6523-0.70312 2.0508 0 3.6914 0.70312 1.6406 0.70313 2.7734 1.9922 1.1328 1.2891 1.7383 3.0859 0.60547 1.7969 0.60547 4.0039z"/>
<path d="m135.37 439.52q-1.0352 0-1.9336 0.41016-0.8789 0.41016-1.543 1.1133-0.66406 0.70313-1.0742 1.6602-0.41016 0.9375-0.50782 2.0117h9.375q0-1.0938-0.29297-2.0312-0.27343-0.95703-0.82031-1.6602-0.54687-0.70312-1.3476-1.0938-0.80079-0.41016-1.8555-0.41016zm1.6602 14.297q1.5039 0 2.7344-0.23438 1.25-0.2539 2.4805-0.70312v2.5195q-0.9961 0.48828-2.4609 0.76172-1.4648 0.29297-3.1445 0.29297-1.9922 0-3.75-0.50781-1.7383-0.50782-3.0469-1.6406-1.3086-1.1328-2.0703-2.9492-0.74219-1.8359-0.74219-4.4141 0-2.5391 0.70313-4.3945 0.70312-1.875 1.875-3.125 1.1719-1.25 2.6953-1.875t3.1836-0.625q1.5625 0 2.9102 0.52734 1.3672 0.50781 2.3633 1.6211 0.9961 1.1133 1.5625 2.8711 0.58594 1.7578 0.58594 4.2188 0 0.23437 0 0.41016 0 0.15625-0.0195 0.74218h-12.734q0 1.7774 0.52735 3.0274 0.54687 1.2305 1.4648 2.0117 0.9375 0.76171 2.1875 1.1133 1.25 0.35156 2.6953 0.35156z"/>
</g>
<g stroke-width=".21289" style="font-feature-settings:normal;font-variant-caps:normal;font-variant-ligatures:normal;font-variant-numeric:normal" aria-label="сотрудничество">
<path d="m2.2079 73.57q0.28691 0 0.54886 0.06237 0.26196 0.05821 0.44907 0.16632v0.53639q-0.26196-0.09979-0.48234-0.14969t-0.44907-0.0499q-0.24117 0-0.47818 0.079t-0.42412 0.26196q-0.18711 0.1788-0.30354 0.47818-0.11227 0.29522-0.11227 0.73598 0 0.32017 0.083161 0.59045 0.087319 0.27027 0.25364 0.46986 0.17048 0.19543 0.42412 0.3077 0.25364 0.10811 0.58629 0.10811 0.24117 0 0.48649-0.0499 0.24533-0.05405 0.47818-0.14969v0.53639q-0.070687 0.04158-0.18711 0.08316-0.11227 0.04158-0.24948 0.07069-0.13722 0.03327-0.29106 0.0499-0.15385 0.02079-0.3077 0.02079-0.39917 0-0.75677-0.12058-0.35344-0.12058-0.61955-0.37006-0.26612-0.24948-0.41996-0.63203-0.15385-0.38254-0.15385-0.90646 0-0.39086 0.079003-0.70271 0.083161-0.31186 0.22454-0.54886 0.14137-0.23701 0.32849-0.40333 0.19127-0.16632 0.40333-0.27027 0.21622-0.10811 0.44491-0.15385 0.22869-0.0499 0.44491-0.0499z" style="font-feature-settings:normal;font-variant-caps:normal;font-variant-ligatures:normal;font-variant-numeric:normal"/>
<path d="m7.102 75.653q0-0.36591-0.091477-0.64866-0.08732-0.28691-0.24948-0.48234-0.15801-0.19959-0.37838-0.29938-0.22038-0.10395-0.48234-0.10395t-0.48234 0.10395q-0.22038 0.09979-0.38254 0.29938-0.15801 0.19543-0.24948 0.48234-0.087319 0.28275-0.087319 0.64866 0 0.36175 0.087319 0.64866 0.091477 0.28275 0.25364 0.47818 0.16216 0.19543 0.38254 0.29938 0.22038 0.09979 0.48234 0.09979t0.47818-0.09979q0.22038-0.10395 0.37838-0.29938 0.16216-0.19543 0.24948-0.47818 0.091477-0.28691 0.091477-0.64866zm0.67361 0q0 0.4657-0.13306 0.84824-0.13306 0.38254-0.37838 0.65698-0.24117 0.27028-0.58629 0.41996-0.34512 0.14969-0.7734 0.14969-0.44076 0-0.79003-0.14969-0.34512-0.14969-0.59045-0.41996-0.24117-0.27443-0.37007-0.65698-0.1289-0.38254-0.1289-0.84824 0-0.46986 0.13306-0.8524 0.13306-0.38254 0.37423-0.65698 0.24533-0.27443 0.59045-0.42412 0.34928-0.14969 0.77756-0.14969 0.4366 0 0.78587 0.14969 0.34928 0.14969 0.59045 0.42412 0.24117 0.27443 0.37007 0.65698 0.1289 0.38254 0.1289 0.8524z" style="font-feature-settings:normal;font-variant-caps:normal;font-variant-ligatures:normal;font-variant-numeric:normal"/>
<path d="m9.7216 74.248h-1.3431v-0.57381h3.3306v0.57381h-1.3431v3.3764h-0.6445z" style="font-feature-settings:normal;font-variant-caps:normal;font-variant-ligatures:normal;font-variant-numeric:normal"/>
<path d="m15.364 75.611q0-0.34512-0.07484-0.61955-0.07069-0.27443-0.21622-0.4657-0.14553-0.19543-0.35759-0.29938-0.21206-0.10395-0.49065-0.10395-0.19959 0-0.36591 0.05405-0.16216 0.05405-0.29522 0.13722-0.13306 0.08316-0.22869 0.1788-0.09564 0.09564-0.15385 0.17048v2.0666q0.20375 0.2079 0.46155 0.32849 0.26196 0.12058 0.56134 0.12058 0.18296 0 0.3867-0.06653 0.20375-0.07069 0.37423-0.24533 0.17464-0.1788 0.28691-0.48234t0.11227-0.7734zm0.67361-0.0083q0 0.41165-0.08316 0.73182-0.079 0.31601-0.21206 0.55302-0.13306 0.23701-0.31186 0.39917-0.1788 0.15801-0.37007 0.2578-0.19127 0.09564-0.39086 0.13722-0.19543 0.04574-0.37007 0.04574-0.36175 0-0.62787-0.11643-0.26612-0.12058-0.47818-0.35344h-0.01247v2.2994h-0.6445v-5.8837h0.48649l0.13722 0.44907h0.01247q0.05405-0.08316 0.13722-0.16216 0.08732-0.079 0.22869-0.16632 0.14553-0.09148 0.34512-0.15801 0.20374-0.06653 0.44076-0.06653 0.33264 0 0.64034 0.11227 0.31186 0.11227 0.54886 0.35759 0.23701 0.24533 0.37838 0.63203 0.14553 0.38254 0.14553 0.93141z" style="font-feature-settings:normal;font-variant-caps:normal;font-variant-ligatures:normal;font-variant-numeric:normal"/>
<path d="m16.562 73.674h0.66113l1.2266 3.0978h0.02495l1.2433-3.0978h0.67777l-2.4657 5.8837h-0.64034l0.84409-2.0125z" style="font-feature-settings:normal;font-variant-caps:normal;font-variant-ligatures:normal;font-variant-numeric:normal"/>
<path d="m22.437 74.227q-0.03742 0.5156-0.1289 0.92309-0.09148 0.40749-0.22869 0.7443-0.13722 0.33264-0.31186 0.61539-0.17464 0.27859-0.38254 0.54471l-0.01247 0.01663h1.9709v-2.8441zm1.551-0.55302v3.3971h0.61955v1.9668h-0.61955v-1.4137h-2.9647v1.4137h-0.61955v-1.9668h0.2079q0.28275-0.30354 0.51144-0.64034 0.22869-0.3368 0.39502-0.74429 0.16632-0.40749 0.26612-0.9023 0.09979-0.49481 0.12474-1.1102z" style="font-feature-settings:normal;font-variant-caps:normal;font-variant-ligatures:normal;font-variant-numeric:normal"/>
<path d="m28.296 77.624v-1.7672h-1.9917v1.7672h-0.6445v-3.9502h0.6445v1.63h1.9917v-1.63h0.6445v3.9502z" style="font-feature-settings:normal;font-variant-caps:normal;font-variant-ligatures:normal;font-variant-numeric:normal"/>
<path d="m30.749 77.624h-0.5655v-3.9502h0.6445v2.1664q0 0.58213-0.02079 0.85656h0.01663q0.11643-0.19127 0.28275-0.43244t0.36175-0.50313l1.5634-2.0874h0.5655v3.9502h-0.6445v-2.1664q0-0.45739 0.02079-0.85656h-0.01663q-0.11643 0.19127-0.28691 0.43244-0.16632 0.24117-0.36175 0.50313z" style="font-feature-settings:normal;font-variant-caps:normal;font-variant-ligatures:normal;font-variant-numeric:normal"/>
<path d="m37.086 75.969h-0.01247q-0.17048 0.11643-0.44491 0.19959-0.27028 0.08316-0.61124 0.08316-0.23701 0-0.48234-0.05405-0.24533-0.05821-0.4366-0.20375-0.19127-0.14969-0.3077-0.40749-0.11643-0.2578-0.11643-0.66113v-1.2516h0.6445v1.1684q0 0.18711 0.03327 0.34512t0.11643 0.27443q0.08732 0.11227 0.23701 0.17464 0.14969 0.06237 0.37838 0.06237 0.28691 0 0.54886-0.079t0.45323-0.22869v-1.7173h0.6445v3.9502h-0.6445z" style="font-feature-settings:normal;font-variant-caps:normal;font-variant-ligatures:normal;font-variant-numeric:normal"/>
<path d="m40.529 74.123q-0.22038 0-0.41165 0.08732-0.18711 0.08732-0.32849 0.23701-0.14138 0.14969-0.22869 0.35344-0.08732 0.19959-0.10811 0.42828h1.9959q0-0.23285-0.06237-0.43244-0.05821-0.20375-0.17464-0.35344-0.11643-0.14969-0.28691-0.23285-0.17048-0.08732-0.39502-0.08732zm0.35344 3.0437q0.32017 0 0.58213-0.0499 0.26612-0.05405 0.52808-0.14969v0.53639q-0.21206 0.10395-0.52392 0.16216-0.31186 0.06237-0.66945 0.06237-0.42412 0-0.79835-0.10811-0.37007-0.10811-0.64866-0.34928-0.27859-0.24117-0.44076-0.62787-0.15801-0.39086-0.15801-0.93972 0-0.54055 0.14969-0.93556 0.14969-0.39917 0.39918-0.66529 0.24948-0.26612 0.57381-0.39917t0.67776-0.13306q0.33264 0 0.61955 0.11227 0.29106 0.10811 0.50313 0.34512 0.21206 0.23701 0.33265 0.61124 0.12474 0.37423 0.12474 0.89814 0 0.0499 0 0.08732 0 0.03327-0.0042 0.15801h-2.7111q0 0.37838 0.11227 0.6445 0.11643 0.26196 0.31186 0.42828 0.19959 0.16216 0.4657 0.23701 0.26612 0.07484 0.57381 0.07484z" style="font-feature-settings:normal;font-variant-caps:normal;font-variant-ligatures:normal;font-variant-numeric:normal"/>
<path d="m44.92 73.57q0.28691 0 0.54886 0.06237 0.26196 0.05821 0.44907 0.16632v0.53639q-0.26196-0.09979-0.48234-0.14969-0.22038-0.0499-0.44907-0.0499-0.24117 0-0.47818 0.079t-0.42412 0.26196q-0.18711 0.1788-0.30354 0.47818-0.11227 0.29522-0.11227 0.73598 0 0.32017 0.08316 0.59045 0.08732 0.27027 0.25364 0.46986 0.17048 0.19543 0.42412 0.3077 0.25364 0.10811 0.58629 0.10811 0.24117 0 0.48649-0.0499 0.24533-0.05405 0.47818-0.14969v0.53639q-0.07069 0.04158-0.18711 0.08316-0.11227 0.04158-0.24948 0.07069-0.13722 0.03327-0.29106 0.0499-0.15385 0.02079-0.3077 0.02079-0.39917 0-0.75677-0.12058-0.35344-0.12058-0.61955-0.37007-0.26612-0.24948-0.41996-0.63203-0.15385-0.38254-0.15385-0.90646 0-0.39086 0.079-0.70271 0.08316-0.31186 0.22454-0.54886 0.14137-0.23701 0.32849-0.40333 0.19127-0.16632 0.40333-0.27027 0.21622-0.10811 0.44491-0.15385 0.22869-0.0499 0.44491-0.0499z" style="font-feature-settings:normal;font-variant-caps:normal;font-variant-ligatures:normal;font-variant-numeric:normal"/>
<path d="m47.893 74.248h-1.3431v-0.57381h3.3306v0.57381h-1.3431v3.3764h-0.6445z" style="font-feature-settings:normal;font-variant-caps:normal;font-variant-ligatures:normal;font-variant-numeric:normal"/>
<path d="m53.09 75.57q0.14137 0.01247 0.27859 0.07485 0.14137 0.05821 0.24948 0.16632 0.11227 0.10811 0.1788 0.27028 0.07069 0.16216 0.07069 0.37838 0 0.36175-0.2079 0.6445-0.20374 0.27859-0.61124 0.41581-0.15385 0.0499-0.36175 0.079-0.20374 0.02495-0.47818 0.02495h-1.5011v-3.9502h1.5842q0.26196 0 0.44907 0.02911 0.18711 0.02495 0.32849 0.07484 0.3368 0.12058 0.50728 0.36591 0.17464 0.24117 0.17464 0.55718 0 0.18711-0.05821 0.33264-0.05405 0.14138-0.14553 0.24533-0.09148 0.09979-0.21206 0.17048-0.12058 0.06653-0.24533 0.10395zm-0.88983 1.5094q0.22454 0 0.37838-0.02079 0.15801-0.02079 0.26612-0.06237 0.19127-0.07485 0.27027-0.2079 0.079-0.13722 0.079-0.32017 0-0.21206-0.10811-0.35344t-0.29938-0.2079q-0.15801-0.05405-0.4366-0.05405h-1.0146v1.2266zm0.13722-1.7713q0.24533 0 0.37423-0.03742 0.18711-0.05821 0.27443-0.18711 0.09148-0.1289 0.09148-0.31601 0-0.32849-0.27028-0.46154-0.16632-0.08732-0.52392-0.08732h-0.94804v1.0894z" style="font-feature-settings:normal;font-variant-caps:normal;font-variant-ligatures:normal;font-variant-numeric:normal"/>
<path d="m57.731 75.653q0-0.36591-0.09148-0.64866-0.08732-0.28691-0.24948-0.48234-0.15801-0.19959-0.37838-0.29938-0.22038-0.10395-0.48234-0.10395t-0.48234 0.10395q-0.22038 0.09979-0.38254 0.29938-0.15801 0.19543-0.24948 0.48234-0.08732 0.28275-0.08732 0.64866 0 0.36175 0.08732 0.64866 0.09148 0.28275 0.25364 0.47818 0.16216 0.19543 0.38254 0.29938 0.22038 0.09979 0.48234 0.09979t0.47818-0.09979q0.22038-0.10395 0.37838-0.29938 0.16216-0.19543 0.24948-0.47818 0.09148-0.28691 0.09148-0.64866zm0.67361 0q0 0.4657-0.13306 0.84824-0.13306 0.38254-0.37838 0.65698-0.24117 0.27028-0.58629 0.41996-0.34512 0.14969-0.7734 0.14969-0.44076 0-0.79003-0.14969-0.34512-0.14969-0.59045-0.41996-0.24117-0.27443-0.37007-0.65698-0.1289-0.38254-0.1289-0.84824 0-0.46986 0.13306-0.8524 0.13306-0.38254 0.37423-0.65698 0.24533-0.27443 0.59044-0.42412 0.34928-0.14969 0.77756-0.14969 0.4366 0 0.78588 0.14969 0.34928 0.14969 0.59044 0.42412 0.24117 0.27443 0.37007 0.65698 0.1289 0.38254 0.1289 0.8524z" style="font-feature-settings:normal;font-variant-caps:normal;font-variant-ligatures:normal;font-variant-numeric:normal"/>
</g>
</g>
</svg>
